<svg width="20" height="23" viewBox="0 0 20 23" fill="none" xmlns="http://www.w3.org/2000/svg">
<path fill-rule="evenodd" clip-rule="evenodd" d="M18.5821 2.46585C19.01 2.62474 19.2959 3.05259 19.2959 3.5334V10.567C19.2959 12.5328 18.6222 14.4093 17.4325 15.8632C16.8343 16.5953 16.0774 17.1654 15.2735 17.6265L11.7896 19.6225L8.2998 17.6255C7.49492 17.1644 6.73704 16.5953 6.13779 15.8622C4.94711 14.4083 4.27148 12.5307 4.27148 10.5628V3.5334C4.27148 3.05259 4.5574 2.62474 4.9853 2.46585L11.4302 0.0638661C11.6593 -0.0212887 11.909 -0.0212887 12.1372 0.0638661L18.5821 2.46585Z" fill="#DFE0FF"/>
<path fill-rule="evenodd" clip-rule="evenodd" d="M15.865 5.12377C16.302 5.27677 16.594 5.68877 16.594 6.15177V12.9248C16.594 14.8178 15.906 16.6248 14.691 18.0248C14.08 18.7298 13.307 19.2788 12.486 19.7228L8.928 21.6448L5.364 19.7218C4.542 19.2778 3.768 18.7298 3.156 18.0238C1.94 16.6238 1.25 14.8158 1.25 12.9208V6.15177C1.25 5.68877 1.542 5.27677 1.979 5.12377L8.561 2.81077C8.795 2.72877 9.05 2.72877 9.283 2.81077L15.865 5.12377Z" stroke="#4756B4" stroke-width="2" stroke-linecap="round" stroke-linejoin="round"/>
<path d="M6.32251 11.9177L8.21451 13.8107L12.1125 9.91272" stroke="#4756B4" stroke-width="2" stroke-linecap="round" stroke-linejoin="round"/>
</svg>
