<svg width="32" height="32" viewBox="0 0 32 32" fill="none" xmlns="http://www.w3.org/2000/svg">
<path d="M30.5646 25.5327H2.10498C1.5746 25.5327 1.13477 25.0794 1.13477 24.5327C1.13477 23.986 1.5746 23.6798 2.10498 23.6798H30.5646C31.0949 23.6798 31.5348 23.986 31.5348 24.5327C31.5348 25.0794 31.0949 25.5327 30.5646 25.5327Z" fill="#616FCF"/>
<path d="M26.3995 25.5461C25.8691 25.5461 25.4292 25.0928 25.4292 24.5461V18.5994C25.4292 18.0528 25.8691 17.5994 26.3995 17.5994C26.9298 17.5994 27.3697 18.0528 27.3697 18.5994V24.5461C27.3697 25.0928 26.9428 25.5461 26.3995 25.5461Z" fill="#616FCF"/>
<path d="M26.4251 19.5994C24.3165 19.5994 22.6089 17.8393 22.6089 15.666V12.6394C22.6089 10.4661 24.3165 8.70605 26.4251 8.70605C28.5337 8.70605 30.2413 10.4661 30.2413 12.6394V15.666C30.2413 17.8393 28.5337 19.5994 26.4251 19.5994ZM26.4251 10.7194C25.3902 10.7194 24.5494 11.5861 24.5494 12.6528V15.6794C24.5494 16.746 25.3902 17.6127 26.4251 17.6127C27.46 17.6127 28.3009 16.746 28.3009 15.6794V12.6528C28.3009 11.5861 27.46 10.7194 26.4251 10.7194Z" fill="#616FCF"/>
<path d="M16.1023 14.6284H12.6977C12.3163 14.6284 12 14.2139 12 13.7141C12 13.2143 12.3163 12.7998 12.6977 12.7998H16.1023C16.4837 12.7998 16.8 13.2143 16.8 13.7141C16.8 14.2139 16.4837 14.6284 16.1023 14.6284Z" fill="#616FCF"/>
<path d="M16.1023 19.1998H12.6977C12.3163 19.1998 12 18.7853 12 18.2855C12 17.7857 12.3163 17.3712 12.6977 17.3712H16.1023C16.4837 17.3712 16.8 17.7857 16.8 18.2855C16.8 18.7853 16.4837 19.1998 16.1023 19.1998Z" fill="#616FCF"/>
<path d="M8.22896 24.9021V21.4975C8.22896 21.1161 7.81449 20.7998 7.31468 20.7998C6.81487 20.7998 6.40039 21.1161 6.40039 21.4975L6.40039 24.9021C6.40039 25.2835 6.70058 25.1198 7.20039 25.1198C8.00039 25.1198 8.22896 25.2436 8.22896 24.9021Z" fill="#616FCF"/>
<path fill-rule="evenodd" clip-rule="evenodd" d="M19.6796 23.6536V12.9336C19.6796 9.5757 16.9575 6.85359 13.5996 6.85359C10.2417 6.85359 8.79961 8.13359 7.51961 11.3336L5.59961 11.3336V23.6536H19.6796ZM13.5996 4.93359C9.18133 4.93359 5.59961 8.03165 5.59961 12.4499V25.5736H21.5996V12.9336C21.5996 8.51532 18.0179 4.93359 13.5996 4.93359Z" fill="#434559"/>
<path fill-rule="evenodd" clip-rule="evenodd" d="M11.7341 23.7067V16.1334C11.7341 13.6297 9.70447 11.6001 7.20078 11.6001C4.69709 11.6001 2.66745 13.6297 2.66745 16.1334V23.7067H11.7341ZM7.20078 9.7334C3.66616 9.7334 0.800781 12.5988 0.800781 16.1334V24.2401C0.800781 24.9764 1.39773 25.5734 2.13411 25.5734H13.6008V16.1334C13.6008 12.5988 10.7354 9.7334 7.20078 9.7334Z" fill="#434559"/>
</svg>
