<svg width="24" height="25" viewBox="0 0 24 25" fill="none" xmlns="http://www.w3.org/2000/svg">
<g clip-path="url(#clip0_123_1722)">
<path d="M6.29199 9.80754C6.29199 7.46043 7.22482 5.20946 8.88527 3.5498C10.5457 1.89015 12.7978 0.957764 15.146 0.957764C17.4942 0.957764 19.7463 1.89015 21.4067 3.5498C23.0672 5.20946 24 7.46043 24 9.80754V15.4382C24 16.3763 24 16.8431 23.8605 17.2181C23.7497 17.5153 23.5762 17.7851 23.3518 18.0094C23.1274 18.2337 22.8574 18.4071 22.5601 18.5179C22.1849 18.6573 21.7168 18.6573 20.7794 18.6573H15.146C12.7978 18.6573 10.5457 17.7249 8.88527 16.0653C7.22482 14.4056 6.29199 12.1546 6.29199 9.80754Z" fill="#DFE0FF"/>
<path d="M3 12.5C3 10.1131 3.94821 7.82387 5.63604 6.13604C7.32387 4.44821 9.61305 3.5 12 3.5C14.3869 3.5 16.6761 4.44821 18.364 6.13604C20.0518 7.82387 21 10.1131 21 12.5V18.2263C21 19.1803 21 19.655 20.8583 20.0364C20.7455 20.3386 20.5692 20.613 20.3411 20.8411C20.113 21.0692 19.8386 21.2455 19.5364 21.3583C19.155 21.5 18.6791 21.5 17.7263 21.5H12C9.61305 21.5 7.32387 20.5518 5.63604 18.864C3.94821 17.1761 3 14.8869 3 12.5Z" stroke="#4756B4" stroke-width="2"/>
<path d="M8.625 11.375H15.375M12 15.2226H15.375" stroke="#4756B4" stroke-width="2" stroke-linecap="round" stroke-linejoin="round"/>
</g>
<defs>
<clipPath id="clip0_123_1722">
<rect width="24" height="24" fill="white" transform="translate(0 0.5)"/>
</clipPath>
</defs>
</svg>
