<svg width="33" height="32" viewBox="0 0 33 32" fill="none" xmlns="http://www.w3.org/2000/svg">
<path d="M30.2724 26.6552H4.05963C3.57112 26.6552 3.16602 26.2794 3.16602 25.8262C3.16602 25.373 3.57112 24.9972 4.05963 24.9972H30.2724C30.7609 24.9972 31.166 25.373 31.166 25.8262C31.166 26.2794 30.7609 26.6552 30.2724 26.6552Z" fill="#48464C"/>
<path d="M26.4361 26.6663C25.9476 26.6663 25.5425 26.2905 25.5425 25.8373V20.9074C25.5425 20.4542 25.9476 20.0784 26.4361 20.0784C26.9246 20.0784 27.3297 20.4542 27.3297 20.9074V25.8373C27.3297 26.2905 26.9366 26.6663 26.4361 26.6663Z" fill="#48464C"/>
<path d="M26.4598 21.7364C24.5176 21.7364 22.9449 20.2773 22.9449 18.4756V15.9665C22.9449 14.1648 24.5176 12.7057 26.4598 12.7057C28.4019 12.7057 29.9747 14.1648 29.9747 15.9665V18.4756C29.9747 20.2773 28.4019 21.7364 26.4598 21.7364ZM26.4598 14.3748C25.5066 14.3748 24.7321 15.0933 24.7321 15.9776V18.4867C24.7321 19.3709 25.5066 20.0894 26.4598 20.0894C27.413 20.0894 28.1874 19.3709 28.1874 18.4867V15.9776C28.1874 15.0933 27.413 14.3748 26.4598 14.3748Z" fill="#48464C"/>
<path d="M19.9062 26.6552C19.4177 26.6552 19.0126 26.2794 19.0126 25.8262V9.5002C19.0126 7.74269 18.2143 6.99103 16.3556 6.99103H8.93264C7.062 6.99103 6.25179 7.74269 6.25179 9.5002V25.8262C6.25179 26.2794 5.84668 26.6552 5.35817 26.6552C4.86966 26.6552 4.46455 26.2794 4.46455 25.8262V9.5002C4.46455 6.8142 6.04923 5.33301 8.93264 5.33301H16.3556C19.2271 5.33301 20.7998 6.8142 20.7998 9.5002V25.8262C20.7998 26.2794 20.3947 26.6552 19.9062 26.6552Z" fill="#48464C"/>
<path d="M12.6979 26.6552C12.2094 26.6552 11.8043 26.2794 11.8043 25.8262V21.6811C11.8043 21.2279 12.2094 20.8521 12.6979 20.8521C13.1864 20.8521 13.5915 21.2279 13.5915 21.6811V25.8262C13.5915 26.2794 13.1864 26.6552 12.6979 26.6552Z" fill="#48464C"/>
<path d="M15.6381 12H9.49859C8.99006 12 8.56836 11.5467 8.56836 11C8.56836 10.4533 8.99006 10 9.49859 10H15.6381C16.1467 10 16.5684 10.4533 16.5684 11C16.5684 11.5467 16.1467 12 15.6381 12Z" fill="#7B89EB"/>
<path d="M15.6381 17H9.49859C8.99006 17 8.56836 16.5467 8.56836 16C8.56836 15.4533 8.99006 15 9.49859 15H15.6381C16.1467 15 16.5684 15.4533 16.5684 16C16.5684 16.5467 16.1467 17 15.6381 17Z" fill="#7B89EB"/>
</svg>
