<svg width="24" height="24" viewBox="0 0 24 24" fill="none" xmlns="http://www.w3.org/2000/svg">
<g clip-path="url(#clip0_123_1742)">
<path d="M8.08762 4.99452C7.02194 5.74352 6.3877 6.96451 6.3877 8.26708V14.5679C6.3877 16.777 8.17856 18.5679 10.3877 18.5679H20C22.2091 18.5679 24 16.777 24 14.5679V8.26708C24 6.96451 23.3658 5.74352 22.3001 4.99452L17.4939 1.61658C16.1139 0.646661 14.2738 0.646659 12.8938 1.61658L8.08762 4.99452Z" fill="#DFE0FF"/>
<path d="M5.11007 7.13367C4.09693 7.88856 3.5 9.07774 3.5 10.3412V17C3.5 19.2091 5.29086 21 7.5 21H16.5C18.7091 21 20.5 19.2091 20.5 17V10.3412C20.5 9.07775 19.9031 7.88856 18.8899 7.13367L14.3899 3.78073C12.9718 2.7241 11.0282 2.7241 9.61007 3.78073L5.11007 7.13367Z" stroke="#4756B4" stroke-width="2" stroke-linecap="round" stroke-linejoin="round"/>
<path d="M8.5 11.5H15.5L13 9M15.5 14.5H8.5L11 17" stroke="#4756B4" stroke-width="2" stroke-linecap="round" stroke-linejoin="round"/>
</g>
<defs>
<clipPath id="clip0_123_1742">
<rect width="24" height="24" fill="white"/>
</clipPath>
</defs>
</svg>
