<svg width="32" height="32" viewBox="0 0 32 32" fill="none" xmlns="http://www.w3.org/2000/svg">
<path d="M10.0564 19.7372V26.9937M17.3129 23.3654V26.9937M13.6846 12.4808V12.7226C14.4778 13.0277 15.1387 13.6014 15.5522 14.3438C15.9656 15.0863 16.1054 15.9503 15.947 16.7852C15.7887 17.6201 15.3423 18.3729 14.6857 18.9124C14.0292 19.4519 13.2041 19.7438 12.3543 19.7372H7.6376C6.79799 19.7163 5.99163 19.4048 5.35606 18.8558C4.72049 18.3068 4.29507 17.5542 4.15237 16.7266C4.00967 15.8989 4.15853 15.0474 4.57355 14.3172C4.98857 13.5871 5.64405 13.0235 6.42819 12.7226V12.4808C6.42819 11.5185 6.81045 10.5956 7.49088 9.91522C8.1713 9.2348 9.09415 8.85254 10.0564 8.85254C11.0187 8.85254 11.9415 9.2348 12.622 9.91522C13.3024 10.5956 13.6846 11.5185 13.6846 12.4808Z" stroke="#7B89EB" stroke-width="2" stroke-linecap="round" stroke-linejoin="round"/>
<path d="M16.1029 23.3652H26.141C26.3777 23.3619 26.6082 23.2891 26.804 23.156C26.9998 23.0229 27.1522 22.8353 27.2423 22.6164C27.3325 22.3975 27.3564 22.1569 27.3111 21.9246C27.2658 21.6922 27.1533 21.4782 26.9876 21.3092L23.3594 17.3182H23.7222C23.9589 17.3148 24.1894 17.2421 24.3852 17.109C24.581 16.9759 24.7334 16.7882 24.8235 16.5693C24.9136 16.3504 24.9376 16.1099 24.8923 15.8775C24.847 15.6452 24.7345 15.4312 24.5688 15.2622L20.9405 11.2711H21.1824C21.4294 11.2934 21.6774 11.2392 21.8925 11.1158C22.1077 10.9925 22.2798 10.806 22.3854 10.5815C22.491 10.3571 22.525 10.1057 22.4829 9.86124C22.4408 9.61681 22.3246 9.39125 22.15 9.21511L17.3123 4.01465L15.6191 5.82876" stroke="#48464C" stroke-width="2" stroke-linecap="round" stroke-linejoin="round"/>
</svg>
