<svg width="32" height="32" viewBox="0 0 32 32" fill="none" xmlns="http://www.w3.org/2000/svg">
<path d="M17.5967 22.3595H14.256C11.9509 22.3595 10.0801 20.4887 10.0801 18.1836V14.8429C10.0801 12.5378 11.9509 10.667 14.256 10.667H17.5967C19.9018 10.667 21.7726 12.5378 21.7726 14.8429V18.1836C21.7726 20.4887 19.9018 22.3595 17.5967 22.3595ZM14.256 12.3373C12.8751 12.3373 11.7504 13.4621 11.7504 14.8429V18.1836C11.7504 19.5644 12.8751 20.6891 14.256 20.6891H17.5967C18.9775 20.6891 20.1022 19.5644 20.1022 18.1836V14.8429C20.1022 13.4621 18.9775 12.3373 17.5967 12.3373H14.256Z" fill="#7B89EB"/>
<path d="M15.9263 22.3595C15.4698 22.3595 15.0911 21.9809 15.0911 21.5243V11.5022C15.0911 11.0456 15.4698 10.667 15.9263 10.667C16.3829 10.667 16.7615 11.0456 16.7615 11.5022V21.5243C16.7615 21.9809 16.3829 22.3595 15.9263 22.3595Z" fill="#7B89EB"/>
<path d="M20.9374 17.3484H10.9153C10.4587 17.3484 10.0801 16.9698 10.0801 16.5132C10.0801 16.0567 10.4587 15.6781 10.9153 15.6781H20.9374C21.3939 15.6781 21.7726 16.0567 21.7726 16.5132C21.7726 16.9698 21.3939 17.3484 20.9374 17.3484Z" fill="#7B89EB"/>
<path fill-rule="evenodd" clip-rule="evenodd" d="M26.2667 21.3332V13.9969C26.2667 12.7912 25.6631 11.6656 24.6588 10.9984L17.4348 6.19903C16.1631 5.35419 14.4969 5.40334 13.2772 6.32166L7.16792 10.9216C6.2646 11.6018 5.73333 12.6668 5.73333 13.7975V21.3332C5.73333 23.3214 7.34511 24.9332 9.33333 24.9332H22.6667C24.6549 24.9332 26.2667 23.3215 26.2667 21.3332ZM6.12532 9.53691C4.78707 10.5445 4 12.1224 4 13.7975V21.3332C4 24.2787 6.38781 26.6666 9.33333 26.6666H22.6667C25.6122 26.6666 28 24.2787 28 21.3332V13.9969C28 12.2107 27.1058 10.5431 25.618 9.55462L18.3939 4.75527C16.51 3.50367 14.0415 3.57648 12.2346 4.93695L6.12532 9.53691Z" fill="#48464C"/>
</svg>
