<svg width="24" height="25" viewBox="0 0 24 25" fill="none" xmlns="http://www.w3.org/2000/svg">
<path d="M7.25684 9.79655C7.25684 7.44945 8.13884 5.19847 9.70882 3.53882C11.2788 1.87916 13.4081 0.946777 15.6284 0.946777C17.8487 0.946777 19.978 1.87916 21.548 3.53882C23.118 5.19847 24 7.44945 24 9.79655V15.4272C24 16.3653 24 16.8321 23.8681 17.2071C23.7633 17.5043 23.5992 17.7742 23.3871 17.9984C23.175 18.2227 22.9197 18.3961 22.6386 18.5069C22.2838 18.6463 21.8412 18.6463 20.9548 18.6463H15.6284C13.4081 18.6463 11.2788 17.7139 9.70882 16.0543C8.13884 14.3946 7.25684 12.1437 7.25684 9.79655Z" fill="#DFE0FF"/>
<path d="M5.22345 13.0005V9.1568C5.23666 8.40127 5.42238 7.65541 5.76996 6.96197C6.11753 6.26853 6.62013 5.64113 7.24897 5.11573C7.8778 4.59032 8.6205 4.17724 9.43451 3.90014C10.2485 3.62304 11.1178 3.48738 11.9927 3.50092C12.8675 3.48738 13.7368 3.62304 14.5508 3.90014C15.3649 4.17724 16.1076 4.59032 16.7364 5.11573C17.3652 5.64113 17.8678 6.26853 18.2154 6.96197C18.563 7.65541 18.7487 8.40127 18.7619 9.1568V13.0005M15.3773 20.6732C16.2749 20.6732 17.1358 20.3652 17.7706 19.8171C18.4053 19.2689 18.7619 18.5254 18.7619 17.7502V14.4619M15.3773 20.6732C15.3773 21.1577 15.1544 21.6223 14.7577 21.9649C14.361 22.3075 13.8229 22.5 13.2619 22.5H10.7234C10.1624 22.5 9.62435 22.3075 9.22764 21.9649C8.83093 21.6223 8.60806 21.1577 8.60806 20.6732C8.60806 20.1887 8.83093 19.724 9.22764 19.3814C9.62435 19.0388 10.1624 18.8463 10.7234 18.8463H13.2619C13.8229 18.8463 14.361 19.0388 14.7577 19.3814C15.1544 19.724 15.3773 20.1887 15.3773 20.6732ZM2.68498 10.8083H4.37729C4.60171 10.8083 4.81693 10.8852 4.97561 11.0223C5.1343 11.1593 5.22345 11.3452 5.22345 11.539V15.9234C5.22345 16.1172 5.1343 16.3031 4.97561 16.4401C4.81693 16.5771 4.60171 16.6541 4.37729 16.6541H2.68498C2.23616 16.6541 1.80571 16.5002 1.48834 16.2261C1.17097 15.952 0.992676 15.5803 0.992676 15.1927V12.2697C0.992676 11.8821 1.17097 11.5104 1.48834 11.2363C1.80571 10.9622 2.23616 10.8083 2.68498 10.8083ZM21.3004 16.6541H19.6081C19.3836 16.6541 19.1684 16.5771 19.0097 16.4401C18.8511 16.3031 18.7619 16.1172 18.7619 15.9234V11.539C18.7619 11.3452 18.8511 11.1593 19.0097 11.0223C19.1684 10.8852 19.3836 10.8083 19.6081 10.8083H21.3004C21.7492 10.8083 22.1796 10.9622 22.497 11.2363C22.8144 11.5104 22.9927 11.8821 22.9927 12.2697V15.1927C22.9927 15.5803 22.8144 15.952 22.497 16.2261C22.1796 16.5002 21.7492 16.6541 21.3004 16.6541Z" stroke="#4756B4" stroke-width="2" stroke-linecap="round" stroke-linejoin="round"/>
<path d="M11.7389 13.8372C11.2717 13.8372 10.8843 13.4498 10.8843 12.9826V12.7433C10.8843 11.4214 11.8529 10.7719 12.2175 10.5212C12.6391 10.2363 12.7759 10.0426 12.7759 9.74632C12.7759 9.17655 12.3087 8.7093 11.7389 8.7093C11.1692 8.7093 10.702 9.17655 10.702 9.74632C10.702 10.2135 10.3145 10.601 9.84733 10.601C9.38012 10.601 8.99268 10.2135 8.99268 9.74632C8.99268 8.23074 10.2233 7 11.7389 7C13.2545 7 14.4852 8.23074 14.4852 9.74632C14.4852 11.0454 13.528 11.6949 13.1747 11.9342C12.7303 12.2305 12.5936 12.4242 12.5936 12.7433V12.9826C12.5936 13.4612 12.2061 13.8372 11.7389 13.8372Z" fill="#4756B4"/>
<path d="M11.7389 16.2093C11.2603 16.2093 10.8843 15.8219 10.8843 15.3547C10.8843 14.8874 11.2717 14.5 11.7389 14.5C12.2061 14.5 12.5936 14.8874 12.5936 15.3547C12.5936 15.8219 12.2175 16.2093 11.7389 16.2093Z" fill="#4756B4"/>
</svg>
