<svg width="32" height="32" viewBox="0 0 32 32" fill="none" xmlns="http://www.w3.org/2000/svg">
<path d="M24.6673 16.9997C24.1207 16.9997 23.6673 16.5463 23.6673 15.9997C23.6673 11.773 20.2273 8.33301 16.0007 8.33301C11.774 8.33301 8.33398 11.773 8.33398 15.9997C8.33398 16.5463 7.88065 16.9997 7.33398 16.9997C6.78732 16.9997 6.33398 16.5463 6.33398 15.9997C6.33398 10.6663 10.6673 6.33301 16.0007 6.33301C21.334 6.33301 25.6673 10.6663 25.6673 15.9997C25.6673 16.5463 25.214 16.9997 24.6673 16.9997Z" fill="#48464C"/>
<path d="M29.334 17.333H29.2273C28.494 17.333 27.894 16.733 27.894 15.9997C27.894 15.2663 28.494 14.6663 29.2273 14.6663C29.9606 14.6663 30.614 15.2663 30.614 15.9997C30.614 16.733 30.0673 17.333 29.334 17.333ZM2.77401 17.333H2.66732C1.93398 17.333 1.33398 16.733 1.33398 15.9997C1.33398 15.2663 1.93398 14.6663 2.66732 14.6663C3.40065 14.6663 4.05396 15.2663 4.05396 15.9997C4.05396 16.733 3.50734 17.333 2.77401 17.333ZM25.3473 7.98633C25.0007 7.98633 24.6673 7.85302 24.4006 7.59969C23.8806 7.07969 23.8806 6.23969 24.4006 5.71969L24.574 5.54635C25.094 5.02635 25.934 5.02635 26.454 5.54635C26.974 6.06635 26.974 6.90635 26.454 7.42635L26.2807 7.59969C26.0273 7.85302 25.694 7.98633 25.3473 7.98633ZM6.65397 7.98633C6.3073 7.98633 5.97402 7.85302 5.70736 7.59969L5.53402 7.42635C5.01402 6.90635 5.01402 6.06635 5.53402 5.54635C6.05402 5.02635 6.89398 5.02635 7.41398 5.54635L7.58732 5.71969C8.10732 6.23969 8.10732 7.07969 7.58732 7.59969C7.33399 7.85302 6.98731 7.98633 6.65397 7.98633ZM16.0007 4.05302C15.2673 4.05302 14.6673 3.50632 14.6673 2.77299V2.66634C14.6673 1.93301 15.2673 1.33301 16.0007 1.33301C16.734 1.33301 17.334 1.93301 17.334 2.66634C17.334 3.39967 16.734 4.05302 16.0007 4.05302Z" fill="#48464C"/>
<path d="M26.6654 21H5.33203C4.78536 21 4.33203 20.5467 4.33203 20C4.33203 19.4533 4.78536 19 5.33203 19H26.6654C27.212 19 27.6654 19.4533 27.6654 20C27.6654 20.5467 27.212 21 26.6654 21Z" fill="#7B89EB"/>
<path d="M23.9987 25H15.9987H7.9987C7.45203 25 6.9987 24.5467 6.9987 24C6.9987 23.4533 7.45203 23 7.9987 23H23.9987C24.5454 23 24.9987 23.4533 24.9987 24C24.9987 24.5467 24.5454 25 23.9987 25Z" fill="#7B89EB"/>
<path d="M19.9987 29H11.9987C11.452 29 10.9987 28.5467 10.9987 28C10.9987 27.4533 11.452 27 11.9987 27H19.9987C20.5454 27 20.9987 27.4533 20.9987 28C20.9987 28.5467 20.5454 29 19.9987 29Z" fill="#7B89EB"/>
</svg>
