<svg width="32" height="32" viewBox="0 0 32 32" fill="none" xmlns="http://www.w3.org/2000/svg">
<path fill-rule="evenodd" clip-rule="evenodd" d="M15.5515 5.30546C15.714 5.79466 15.4491 6.32292 14.9599 6.48537L14.6076 6.60237C14.6074 6.60243 14.6077 6.60232 14.6076 6.60237C13.7074 6.90242 13.1066 7.10418 12.6634 7.31046C12.2418 7.50664 12.0513 7.66842 11.9274 7.84069C11.8029 8.01377 11.7095 8.24678 11.6565 8.70904C11.6176 9.0483 11.6051 9.45951 11.601 9.9996H20.4008C20.4049 9.42781 20.4193 8.92758 20.4687 8.4965C20.542 7.85643 20.7007 7.2761 21.0788 6.75052C21.4575 6.22412 21.9584 5.8899 22.5425 5.61808C23.0939 5.36146 23.7966 5.12726 24.6342 4.84808L25.0383 4.71383C25.5275 4.55138 26.0557 4.81626 26.2182 5.30546C26.3806 5.79466 26.1158 6.32292 25.6266 6.48537L25.2742 6.60237C25.2741 6.60243 25.2744 6.60232 25.2742 6.60237C24.3741 6.90242 23.7733 7.10418 23.33 7.31046C22.9085 7.50664 22.718 7.66842 22.594 7.84069C22.4695 8.01377 22.3762 8.24678 22.3232 8.70904C22.2675 9.19496 22.2658 9.8285 22.2658 10.7769V21.0663C22.2658 21.5817 21.8479 21.9996 21.3324 21.9996C20.817 21.9996 20.3991 21.5817 20.3991 21.0663V17.1996H11.5991V21.0663C11.5991 21.5817 11.1812 21.9996 10.6658 21.9996C10.1503 21.9996 9.73242 21.5817 9.73242 21.0663L9.73242 10.7368C9.73241 9.84831 9.73239 9.10379 9.80199 8.4965C9.87535 7.85643 10.034 7.2761 10.4121 6.75052C10.7909 6.22412 11.2917 5.8899 11.8758 5.61808C12.4272 5.36146 13.1299 5.12726 13.9675 4.84808L14.3716 4.71383C14.8608 4.55138 15.3891 4.81626 15.5515 5.30546ZM11.5991 11.8663V15.3329H20.3991V11.8663H11.5991Z" fill="#48464C"/>
<path fill-rule="evenodd" clip-rule="evenodd" d="M7.99883 22.8662C8.39845 22.8662 8.74626 23.1395 8.84086 23.5277C9.09179 24.5576 10.3468 25.5329 11.9988 25.5329C13.6509 25.5329 14.9059 24.5576 15.1568 23.5277C15.2514 23.1395 15.5992 22.8662 15.9988 22.8662C16.3985 22.8662 16.7463 23.1395 16.8409 23.5277C17.0918 24.5576 18.3468 25.5329 19.9988 25.5329C21.6509 25.5329 22.9059 24.5576 23.1568 23.5277C23.2514 23.1395 23.5992 22.8662 23.9988 22.8662C24.3985 22.8662 24.7463 23.1395 24.8409 23.5277C25.0918 24.5576 26.3468 25.5329 27.9988 25.5329H29.3322C29.8108 25.5329 30.1988 25.9209 30.1988 26.3995C30.1988 26.8782 29.8108 27.2662 29.3322 27.2662H27.9988C26.4461 27.2662 24.9341 26.6212 23.9988 25.5433C23.0635 26.6212 21.5515 27.2662 19.9988 27.2662C18.4461 27.2662 16.9341 26.6212 15.9988 25.5433C15.0635 26.6212 13.5515 27.2662 11.9988 27.2662C10.4461 27.2662 8.93414 26.6212 7.99883 25.5433C7.06352 26.6212 5.55151 27.2662 3.99883 27.2662H2.66549C2.18685 27.2662 1.79883 26.8782 1.79883 26.3995C1.79883 25.9209 2.18685 25.5329 2.66549 25.5329H3.99883C5.65087 25.5329 6.90586 24.5576 7.1568 23.5277C7.25139 23.1395 7.59921 22.8662 7.99883 22.8662Z" fill="#7B89EB"/>
</svg>
